<svg width="242" height="242" viewBox="0 0 242 242" fill="none" xmlns="http://www.w3.org/2000/svg">
<g clip-path="url(#clip0_87_93)">
<path d="M105.278 25.5C111.821 14.1667 128.179 14.1667 134.722 25.5L229.119 189C235.662 200.333 227.483 214.5 214.397 214.5H25.6032C12.5166 214.5 4.3375 200.333 10.8808 189L105.278 25.5Z" fill="#252424" stroke="#252424" stroke-width="15"/>
<path d="M115.17 51.5C117.094 48.1667 121.906 48.1667 123.83 51.5L200.473 184.25C202.398 187.583 199.992 191.75 196.143 191.75H42.8567C39.0077 191.75 36.6021 187.583 38.5266 184.25L115.17 51.5Z" fill="#252424"/>
<rect width="138" height="39" transform="translate(52 183)" fill="#252424"/>
<path d="M77.6094 189.703V215H71.8594V197.922L69.5625 215H65.4844L63.0625 198.312V215H57.3125V189.703H65.8281C66.0781 191.224 66.3438 193.016 66.625 195.078L67.5312 201.516L69.0312 189.703H77.6094ZM80.25 189.703H91.2188V194.766H86.8281V199.562H90.9375V204.375H86.8281V209.938H91.6562V215H80.25V189.703ZM113.859 189.703V215H108.109V197.922L105.812 215H101.734L99.3125 198.312V215H93.5625V189.703H102.078C102.328 191.224 102.594 193.016 102.875 195.078L103.781 201.516L105.281 189.703H113.859ZM131.531 204.516C131.531 207.057 131.469 208.859 131.344 209.922C131.229 210.974 130.854 211.938 130.219 212.812C129.594 213.688 128.745 214.359 127.672 214.828C126.599 215.297 125.349 215.531 123.922 215.531C122.568 215.531 121.349 215.312 120.266 214.875C119.193 214.427 118.328 213.76 117.672 212.875C117.016 211.99 116.625 211.026 116.5 209.984C116.375 208.943 116.312 207.12 116.312 204.516V200.188C116.312 197.646 116.37 195.849 116.484 194.797C116.609 193.734 116.984 192.766 117.609 191.891C118.245 191.016 119.099 190.344 120.172 189.875C121.245 189.406 122.495 189.172 123.922 189.172C125.276 189.172 126.49 189.396 127.562 189.844C128.646 190.281 129.516 190.943 130.172 191.828C130.828 192.714 131.219 193.677 131.344 194.719C131.469 195.76 131.531 197.583 131.531 200.188V204.516ZM124.953 196.203C124.953 195.026 124.885 194.276 124.75 193.953C124.625 193.62 124.359 193.453 123.953 193.453C123.609 193.453 123.344 193.589 123.156 193.859C122.979 194.12 122.891 194.901 122.891 196.203V208.016C122.891 209.484 122.948 210.391 123.062 210.734C123.188 211.078 123.469 211.25 123.906 211.25C124.354 211.25 124.641 211.052 124.766 210.656C124.891 210.26 124.953 209.318 124.953 207.828V196.203ZM134 189.703H138.656C141.76 189.703 143.859 189.823 144.953 190.062C146.057 190.302 146.953 190.917 147.641 191.906C148.339 192.885 148.688 194.453 148.688 196.609C148.688 198.578 148.443 199.901 147.953 200.578C147.464 201.255 146.5 201.661 145.062 201.797C146.365 202.12 147.24 202.552 147.688 203.094C148.135 203.635 148.411 204.135 148.516 204.594C148.63 205.042 148.688 206.286 148.688 208.328V215H142.578V206.594C142.578 205.24 142.469 204.401 142.25 204.078C142.042 203.755 141.484 203.594 140.578 203.594V215H134V189.703ZM140.578 194.031V199.656C141.318 199.656 141.833 199.557 142.125 199.359C142.427 199.151 142.578 198.49 142.578 197.375V195.984C142.578 195.182 142.432 194.656 142.141 194.406C141.859 194.156 141.339 194.031 140.578 194.031ZM157.828 189.703V215H151.25V189.703H157.828ZM171.469 189.703V194.766L166.562 209.938H171.469V215H159.344V211.328L164.406 194.766H159.938V189.703H171.469ZM173.188 189.703H184.156V194.766H179.766V199.562H183.875V204.375H179.766V209.938H184.594V215H173.188V189.703Z" fill="#252424"/>
<path d="M112.406 98.0156H105.828V95.7188C105.828 94.2708 105.766 93.3646 105.641 93C105.516 92.6354 105.219 92.4531 104.75 92.4531C104.344 92.4531 104.068 92.6094 103.922 92.9219C103.776 93.2344 103.703 94.0365 103.703 95.3281V107.469C103.703 108.604 103.776 109.354 103.922 109.719C104.068 110.073 104.359 110.25 104.797 110.25C105.276 110.25 105.599 110.047 105.766 109.641C105.943 109.234 106.031 108.443 106.031 107.266V104.266H104.703V100.422H112.406V114H108.266L107.656 112.188C107.208 112.969 106.641 113.557 105.953 113.953C105.276 114.339 104.474 114.531 103.547 114.531C102.443 114.531 101.406 114.266 100.438 113.734C99.4792 113.193 98.75 112.526 98.25 111.734C97.75 110.943 97.4375 110.115 97.3125 109.25C97.1875 108.375 97.125 107.068 97.125 105.328V97.8125C97.125 95.3958 97.2552 93.6406 97.5156 92.5469C97.776 91.4531 98.5208 90.4531 99.75 89.5469C100.99 88.6302 102.589 88.1719 104.547 88.1719C106.474 88.1719 108.073 88.5677 109.344 89.3594C110.615 90.151 111.443 91.0938 111.828 92.1875C112.214 93.2708 112.406 94.849 112.406 96.9219V98.0156ZM114.969 88.7031H125.938V93.7656H121.547V98.5625H125.656V103.375H121.547V108.938H126.375V114H114.969V88.7031ZM141.531 88.7031V93.7656H137.625V114H131.047V93.7656H127.156V88.7031H141.531Z" fill="#252424"/>
<path d="M80.3125 121.703H84.9688C88.0729 121.703 90.1719 121.823 91.2656 122.062C92.3698 122.302 93.2656 122.917 93.9531 123.906C94.651 124.885 95 126.453 95 128.609C95 130.578 94.7552 131.901 94.2656 132.578C93.776 133.255 92.8125 133.661 91.375 133.797C92.6771 134.12 93.5521 134.552 94 135.094C94.4479 135.635 94.724 136.135 94.8281 136.594C94.9427 137.042 95 138.286 95 140.328V147H88.8906V138.594C88.8906 137.24 88.7812 136.401 88.5625 136.078C88.3542 135.755 87.7969 135.594 86.8906 135.594V147H80.3125V121.703ZM86.8906 126.031V131.656C87.6302 131.656 88.1458 131.557 88.4375 131.359C88.7396 131.151 88.8906 130.49 88.8906 129.375V127.984C88.8906 127.182 88.7448 126.656 88.4531 126.406C88.1719 126.156 87.651 126.031 86.8906 126.031ZM97.5625 121.703H108.531V126.766H104.141V131.562H108.25V136.375H104.141V141.938H108.969V147H97.5625V121.703ZM122.234 121.703L126 147H119.266L118.938 142.453H116.578L116.188 147H109.375L112.719 121.703H122.234ZM118.75 137.969C118.417 135.104 118.083 131.568 117.75 127.359C117.083 132.193 116.667 135.729 116.5 137.969H118.75ZM127.125 121.703H132.047C135.224 121.703 137.37 121.849 138.484 122.141C139.609 122.432 140.464 122.911 141.047 123.578C141.63 124.245 141.995 124.99 142.141 125.812C142.286 126.625 142.359 128.229 142.359 130.625V139.484C142.359 141.755 142.25 143.276 142.031 144.047C141.823 144.807 141.453 145.406 140.922 145.844C140.391 146.271 139.734 146.573 138.953 146.75C138.172 146.917 136.995 147 135.422 147H127.125V121.703ZM133.703 126.031V142.672C134.651 142.672 135.234 142.484 135.453 142.109C135.672 141.724 135.781 140.688 135.781 139V129.172C135.781 128.026 135.745 127.292 135.672 126.969C135.599 126.646 135.432 126.411 135.172 126.266C134.911 126.109 134.422 126.031 133.703 126.031ZM158.828 121.703L154.031 137.844V147H147.938V137.844L143.312 121.703H149.359C150.307 126.63 150.839 129.948 150.953 131.656C151.318 128.958 151.927 125.641 152.781 121.703H158.828Z" fill="#252424"/>
<path d="M116.562 155.703V160.766H112.656V181H106.078V160.766H102.188V155.703H116.562ZM133.094 170.516C133.094 173.057 133.031 174.859 132.906 175.922C132.792 176.974 132.417 177.938 131.781 178.812C131.156 179.688 130.307 180.359 129.234 180.828C128.161 181.297 126.911 181.531 125.484 181.531C124.13 181.531 122.911 181.312 121.828 180.875C120.755 180.427 119.891 179.76 119.234 178.875C118.578 177.99 118.188 177.026 118.062 175.984C117.938 174.943 117.875 173.12 117.875 170.516V166.188C117.875 163.646 117.932 161.849 118.047 160.797C118.172 159.734 118.547 158.766 119.172 157.891C119.807 157.016 120.661 156.344 121.734 155.875C122.807 155.406 124.057 155.172 125.484 155.172C126.839 155.172 128.052 155.396 129.125 155.844C130.208 156.281 131.078 156.943 131.734 157.828C132.391 158.714 132.781 159.677 132.906 160.719C133.031 161.76 133.094 163.583 133.094 166.188V170.516ZM126.516 162.203C126.516 161.026 126.448 160.276 126.312 159.953C126.188 159.62 125.922 159.453 125.516 159.453C125.172 159.453 124.906 159.589 124.719 159.859C124.542 160.12 124.453 160.901 124.453 162.203V174.016C124.453 175.484 124.51 176.391 124.625 176.734C124.75 177.078 125.031 177.25 125.469 177.25C125.917 177.25 126.203 177.052 126.328 176.656C126.453 176.26 126.516 175.318 126.516 173.828V162.203Z" fill="#252424"/>
</g>
<defs>
<clipPath id="clip0_87_93">
<rect width="242" height="242" fill="white"/>
</clipPath>
</defs>
</svg>
