<svg width="281" height="254" viewBox="0 0 281 254" fill="none" xmlns="http://www.w3.org/2000/svg">
<path d="M71.5983 142.844C73.2327 176.206 103.544 190.082 128.656 172.072C181.669 160.567 208.265 167.192 251.388 197.02C282.644 164.194 287.805 141.901 272.488 94.4247C261.83 62.5117 254.954 25.9296 167.288 7.77247C80.2771 -3.43403 44.7041 1.27726 7.26021 68.2962C-4.32954 105.939 13.3503 130.436 71.5983 142.844Z" fill="#F2D30C"/>
<path d="M154.712 206.965C145.851 206.5 132.785 192.428 128.341 171.429C144.912 164.463 156.104 162.412 181.232 163.793C211.624 167.564 225.228 172.646 240.642 189.344C246.865 211.37 220.493 232.809 199.307 223.558C196.84 225.906 194.792 227.223 187.306 229.579L188.195 250.284L172.935 253.074C171.75 227.817 152.49 225.32 154.712 206.965Z" fill="#F2D30C"/>
<path d="M267.601 90.7232C244.849 98.4581 242.815 110.148 250.711 128.5M211.232 172.436C220.954 167.501 220.711 166.582 228.462 163.551M211.232 172.436C215.168 176.395 216.376 178.675 216.933 182.887M211.232 172.436C206.045 171.946 201.368 171.511 197.083 171.189M105 188C115.277 180.227 112.833 162.543 108.042 156.5M126.996 101.808L141.247 90.7232M126.996 101.808C126.035 109.502 124.212 116.246 121.992 122.5M126.996 101.808C116.723 99.5039 108.664 98.1902 102.137 97.9437M141.247 90.7232C147.31 106.18 147.557 115.636 145.364 133.163M141.247 90.7232L145.364 72.512M149.48 54.3009C141.288 46.9724 136.029 40.8763 133.249 35.2808M149.48 54.3009L145.364 72.512M149.48 54.3009C157.637 48.0883 164.257 43.4016 170.819 39.6132M141.247 3.62634C131.661 15.7465 127.942 24.6022 133.249 35.2808M198.249 28.3302C194.221 29.4905 190.574 30.6738 187.165 31.9414M238.5 66.5C234.396 63.3081 230.409 62.2529 226.5 62.7705M187.165 31.9414C185.541 10.5268 182.64 8.83322 203.454 3.62634M187.165 31.9414C181.253 34.1392 176.055 36.5902 170.819 39.6132M76.0113 109.726C77.2833 124.675 78.6597 130.801 81.3948 140.764M76.0113 109.726C70.0208 109.203 65.0813 109.245 60.9082 109.991M76.0113 109.726C82.2405 101.181 89.1617 97.4536 102.137 97.9437M3.49219 109.726L18.0593 133.163H38.6434C44.2135 118.836 49.889 111.96 60.9082 109.991M192.348 99.5912C182.537 98.1467 179.313 95.6032 182.731 84.0722M192.348 99.5912C188.919 107.354 186.276 115.906 184.509 125.129M192.348 99.5912C197.49 87.949 204.401 78.08 212.782 70.3811M6.0256 56.5179C24.2217 55.1945 33.1365 56.3821 45.2934 64.1191M45.2934 64.1191L38.6434 82.4886M45.2934 64.1191C47.7799 60.9801 50.0774 58.602 52.2603 56.8469M103.879 64.1191C100.748 63.8345 97.8513 63.3635 95.1534 62.7705M228.462 163.551C222.607 159.544 219.818 151.216 218.115 146.593M228.462 163.551C232.198 162.09 239.808 160.824 247.5 159.549M52.2603 56.8469C48.7769 18.1953 33.5764 25.7965 84.8781 18.1953M52.2603 56.8469C63.2481 48.0128 71.3326 54.9643 85.987 60.1311M133.249 35.2808C141.22 36.5182 145.148 35.8783 150.491 30.6607M145.364 72.512C136.598 69.0221 131.581 67.1462 127.096 60.2988M85.987 60.1311C98.7097 54.7164 105.814 50.1761 107.07 44.0363C108.326 37.8965 107.164 31.6729 102.137 25.6274M85.987 60.1311C88.7816 61.1164 91.8152 62.0369 95.1534 62.7705M60.9082 109.991C58.7724 95.7033 61.4587 88.8899 75.3839 79.5502M184.509 125.129C183.755 129.06 183.16 133.114 182.731 137.28C182.153 142.9 180.598 146.617 178.855 149.5M184.509 125.129C215.088 135.952 223.924 133.684 219.425 107.361C218.421 102.11 218.361 98.1823 219.389 95.0384M247.357 82.4672C244.977 80.7964 242.941 80.4805 236.345 82.5165C226.616 86.2552 221.24 89.3762 219.389 95.0384M219.389 95.0384C226.171 98.9515 230.02 100.558 237.241 98.858M212.782 70.3811C186.223 68.9453 177.439 62.2376 170.819 39.6132M212.782 70.3811C217.286 66.2442 221.837 63.3881 226.5 62.7705M172.256 161.5C172.028 163.938 172.527 166.974 174.181 171.189C180.817 170.335 188.086 170.514 197.083 171.189M172.256 161.5C143.734 166.21 143.802 181.522 156 193.5M172.256 161.5C172.708 156.656 176.029 154.175 178.855 149.5M178.855 149.5C159.252 157.834 148.914 159.464 133.249 149.5C136.862 138.292 132.532 132.534 121.992 122.5M121.992 122.5C117.71 134.56 111.952 144.795 108.042 156.5M226.5 62.7705C214.09 49.1863 212.493 42.0336 240.5 31.9414M108.042 156.5C97.1892 150.897 94.0569 145.823 85.987 161.5M197.083 171.189C186.161 195.933 182.365 208.393 211.232 209M250.711 128.5C254.098 136.37 259.311 145.466 265.5 156C261.191 157.284 254.313 158.42 247.5 159.549M250.711 128.5C267.832 116.94 275.071 114.415 273 135M247.5 159.549C249.097 177.453 254.931 181.727 273 180.5M102.137 97.9437C109.915 84.2093 106.396 76.508 95.1534 62.7705" stroke="#252424" stroke-width="7" stroke-linecap="round" stroke-linejoin="round"/>
</svg>
