<svg width="242" height="242" viewBox="0 0 242 242" fill="none" xmlns="http://www.w3.org/2000/svg">
<g clip-path="url(#clip0_35_872)">
<path d="M105.278 25.5C111.821 14.1667 128.179 14.1667 134.722 25.5L229.119 189C235.662 200.333 227.483 214.5 214.397 214.5H25.6032C12.5166 214.5 4.3375 200.333 10.8808 189L105.278 25.5Z" fill="#252424" stroke="#F2D30C" stroke-width="15"/>
<path d="M115.17 51.5C117.094 48.1667 121.906 48.1667 123.83 51.5L200.473 184.25C202.398 187.583 199.992 191.75 196.143 191.75H42.8567C39.0077 191.75 36.6021 187.583 38.5266 184.25L115.17 51.5Z" fill="#F2D30C"/>
<rect width="139" height="39" transform="translate(51 183)" fill="#F2D30C"/>
<path d="M56.3125 189.703H67.4531V194.766H62.8906V199.562H66.9531V204.375H62.8906V215H56.3125V189.703ZM75.6406 189.703V209.938H79.6406V215H69.0625V189.703H75.6406ZM92.6094 189.703L96.375 215H89.6406L89.3125 210.453H86.9531L86.5625 215H79.75L83.0938 189.703H92.6094ZM89.125 205.969C88.7917 203.104 88.4583 199.568 88.125 195.359C87.4583 200.193 87.0417 203.729 86.875 205.969H89.125ZM110.75 189.703V194.766H106.844V215H100.266V194.766H96.375V189.703H110.75ZM133.031 189.703V215H126.453V204.375H124.484V215H117.906V189.703H124.484V198.75H126.453V189.703H133.031ZM147.047 189.703L150.812 215H144.078L143.75 210.453H141.391L141 215H134.188L137.531 189.703H147.047ZM143.562 205.969C143.229 203.104 142.896 199.568 142.562 195.359C141.896 200.193 141.479 203.729 141.312 205.969H143.562ZM166.625 189.703V215H160.859L157.438 203.5V215H151.938V189.703H157.438L161.125 201.094V189.703H166.625ZM169.281 189.703H174.203C177.38 189.703 179.526 189.849 180.641 190.141C181.766 190.432 182.62 190.911 183.203 191.578C183.786 192.245 184.151 192.99 184.297 193.812C184.443 194.625 184.516 196.229 184.516 198.625V207.484C184.516 209.755 184.406 211.276 184.188 212.047C183.979 212.807 183.609 213.406 183.078 213.844C182.547 214.271 181.891 214.573 181.109 214.75C180.328 214.917 179.151 215 177.578 215H169.281V189.703ZM175.859 194.031V210.672C176.807 210.672 177.391 210.484 177.609 210.109C177.828 209.724 177.938 208.688 177.938 207V197.172C177.938 196.026 177.901 195.292 177.828 194.969C177.755 194.646 177.589 194.411 177.328 194.266C177.068 194.109 176.578 194.031 175.859 194.031Z" fill="#252424"/>
<path d="M100.002 96.8728C100.097 127.054 100.185 144.531 98.8591 151.809C98.2875 153.526 97.2006 153.06 96.001 151.809L84.5684 137.503C81.1386 134.069 71.9926 136.931 75.9939 142.653C84.1926 153.528 88.2437 160.395 94.2861 174.127C98.2894 182.233 104.004 185 116.008 185C124.583 185 136.587 176.988 138.302 168.977C139.612 160.238 140.524 155.266 142.875 146.087L152.592 119.763C154.879 114.04 146.876 111.751 145.161 115.757L138.302 135.786C137.158 137.503 134.872 136.358 135.443 134.069L139.445 96.8728C139.445 92.2948 130.299 91.1503 129.156 96.8728L126.869 129.491C126.297 133.497 122.868 132.925 122.868 129.491L124.011 89.4335C124.011 84.8555 116.008 84.8555 115.436 89.4335L113.722 126.63C113.15 128.347 110.863 128.347 110.292 126.63V96.8728C110.292 91.7226 101.146 90.578 100.002 96.8728Z" fill="#252424"/>
</g>
<defs>
<clipPath id="clip0_35_872">
<rect width="242" height="242" fill="white"/>
</clipPath>
</defs>
</svg>
