<svg width="198" height="250" viewBox="0 0 198 250" fill="none" xmlns="http://www.w3.org/2000/svg">
<path d="M63.4676 27.4567C63.7079 103.672 63.9304 147.805 60.5655 166.185C59.1145 170.52 56.3553 169.344 53.3102 166.185L24.289 130.058C15.5826 121.387 -7.63415 128.613 2.52303 143.064C23.3351 170.524 33.6186 187.866 48.957 222.543C59.1192 243.012 73.6251 250 104.097 250C125.863 250 156.336 229.769 160.689 209.538C164.016 187.471 166.33 174.913 172.297 151.734L196.965 85.2602C202.77 70.8093 182.455 65.0289 178.102 75.1445L160.689 125.723C157.787 130.058 151.982 127.168 153.434 121.387L163.591 27.4567C163.591 15.8959 140.374 13.0058 137.472 27.4567L131.668 109.827C130.217 119.942 121.51 118.497 121.51 109.827L124.412 8.67054C124.412 -2.89018 104.097 -2.89018 102.646 8.67054L98.2931 102.601C96.8421 106.936 91.0378 106.936 89.5867 102.601V27.4567C89.5867 14.4509 66.3698 11.5607 63.4676 27.4567Z" fill="#F2D30C"/>
</svg>
