<svg width="100" height="100" viewBox="0 0 100 100" fill="none" xmlns="http://www.w3.org/2000/svg">
<rect width="100" height="100" fill="#F2D30C"/>
<path d="M40.5602 22.6879C40.6267 44.0281 40.6883 56.3854 39.7573 61.5318C39.3558 62.7457 38.5924 62.4164 37.7499 61.5318L29.7203 51.4162C27.3114 48.9884 20.8878 51.0116 23.6981 55.0578C29.4563 62.7468 32.3016 67.6026 36.5454 77.3121C39.3571 83.0435 43.3706 85 51.8016 85C57.8238 85 66.2549 79.3353 67.4594 73.6705C68.3798 67.4918 69.0201 63.9756 70.6712 57.4856L77.4964 38.8728C79.1023 34.8266 73.4815 33.2081 72.2771 36.0405L67.4594 50.2023C66.6564 51.4162 65.0505 50.6069 65.452 48.9884L68.2623 22.6879C68.2623 19.4509 61.8386 18.6416 61.0357 22.6879L59.4298 45.7515C59.0283 48.5838 56.6194 48.1792 56.6194 45.7515L57.4224 17.4278C57.4224 14.1907 51.8016 14.1908 51.4002 17.4278L50.1957 43.7283C49.7942 44.9422 48.1883 44.9422 47.7868 43.7283V22.6879C47.7868 19.0462 41.3632 18.237 40.5602 22.6879Z" fill="#252424"/>
</svg>
