<svg width="182" height="182" viewBox="0 0 182 182" fill="none" xmlns="http://www.w3.org/2000/svg">
<rect x="2.5" y="2.5" width="177" height="177" fill="#F2D30C" stroke="#F2D30C" stroke-width="5"/>
<path d="M74.1032 44.1792C74.2172 80.7625 74.3227 101.946 72.7267 110.769C72.0385 112.85 70.7298 112.285 69.2855 110.769L55.5205 93.4278C51.391 89.2659 40.3791 92.7341 45.1967 99.6705C55.068 112.852 59.9456 121.176 67.2207 137.821C72.0407 147.646 78.921 151 93.3742 151C103.698 151 118.151 141.289 120.216 131.578C121.794 120.986 122.892 114.958 125.722 103.832L137.422 71.9249C140.175 64.9884 130.54 62.2139 128.475 67.0694L120.216 91.3468C118.84 93.4277 116.087 92.0405 116.775 89.2659L121.593 44.1792C121.593 38.6301 110.581 37.2428 109.204 44.1792L106.451 83.7168C105.763 88.5723 101.633 87.8786 101.633 83.7168L103.01 35.1619C103.01 29.6127 93.3742 29.6127 92.686 35.1619L90.6212 80.2486C89.933 82.3295 87.18 82.3295 86.4917 80.2486V44.1792C86.4917 37.9364 75.4797 36.5491 74.1032 44.1792Z" fill="#252424"/>
</svg>
