<svg width="242" height="242" viewBox="0 0 242 242" fill="none" xmlns="http://www.w3.org/2000/svg">
<g clip-path="url(#clip0_35_872)">
<path d="M105.278 25.5C111.821 14.1667 128.179 14.1667 134.722 25.5L229.119 189C235.662 200.333 227.483 214.5 214.397 214.5H25.6032C12.5166 214.5 4.3375 200.333 10.8808 189L105.278 25.5Z" fill="#252424" stroke="#F2D30C" stroke-width="15"/>
<path d="M115.17 51.5C117.094 48.1667 121.906 48.1667 123.83 51.5L200.473 184.25C202.398 187.583 199.992 191.75 196.143 191.75H42.8567C39.0077 191.75 36.6021 187.583 38.5266 184.25L115.17 51.5Z" fill="#F2D30C"/>
<path d="M100.002 96.8728C100.097 127.054 100.185 144.531 98.8591 151.809C98.2875 153.526 97.2006 153.06 96.001 151.809L84.5684 137.503C81.1386 134.069 71.9926 136.931 75.9939 142.653C84.1926 153.528 88.2437 160.395 94.2861 174.127C98.2894 182.233 104.004 185 116.008 185C124.583 185 136.587 176.988 138.302 168.977C139.612 160.238 140.524 155.266 142.875 146.087L152.592 119.763C154.879 114.04 146.876 111.751 145.161 115.757L138.302 135.786C137.158 137.503 134.872 136.358 135.443 134.069L139.445 96.8728C139.445 92.2948 130.299 91.1503 129.156 96.8728L126.869 129.491C126.297 133.497 122.868 132.925 122.868 129.491L124.011 89.4335C124.011 84.8555 116.008 84.8555 115.436 89.4335L113.722 126.63C113.15 128.347 110.863 128.347 110.292 126.63V96.8728C110.292 91.7226 101.146 90.578 100.002 96.8728Z" fill="#252424"/>
</g>
<defs>
<clipPath id="clip0_35_872">
<rect width="242" height="242" fill="white"/>
</clipPath>
</defs>
</svg>
