<svg width="242" height="242" viewBox="0 0 242 242" fill="none" xmlns="http://www.w3.org/2000/svg">
<g clip-path="url(#clip0_87_68)">
<path d="M105.278 25.5C111.821 14.1667 128.179 14.1667 134.722 25.5L229.119 189C235.662 200.333 227.483 214.5 214.397 214.5H25.6032C12.5166 214.5 4.3375 200.333 10.8808 189L105.278 25.5Z" fill="#252424" stroke="#F2D30C" stroke-width="15"/>
<path d="M115.17 51.5C117.094 48.1667 121.906 48.1667 123.83 51.5L200.473 184.25C202.398 187.583 199.992 191.75 196.143 191.75H42.8567C39.0077 191.75 36.6021 187.583 38.5266 184.25L115.17 51.5Z" fill="#F2D30C"/>
<rect width="85" height="39" transform="translate(78 183)" fill="#F2D30C"/>
<path d="M83.3125 189.703H89.9375C91.7292 189.703 93.1042 189.844 94.0625 190.125C95.0312 190.406 95.7552 190.812 96.2344 191.344C96.724 191.875 97.0521 192.521 97.2188 193.281C97.3958 194.031 97.4844 195.198 97.4844 196.781V198.984C97.4844 200.599 97.3177 201.776 96.9844 202.516C96.651 203.255 96.0365 203.823 95.1406 204.219C94.2552 204.615 93.0938 204.812 91.6562 204.812H89.8906V215H83.3125V189.703ZM89.8906 194.031V200.469C90.0781 200.479 90.2396 200.484 90.375 200.484C90.9792 200.484 91.3958 200.339 91.625 200.047C91.8646 199.745 91.9844 199.125 91.9844 198.188V196.109C91.9844 195.245 91.849 194.682 91.5781 194.422C91.3073 194.161 90.7448 194.031 89.8906 194.031ZM99.375 189.703H110.344V194.766H105.953V199.562H110.062V204.375H105.953V209.938H110.781V215H99.375V189.703ZM124.047 189.703L127.812 215H121.078L120.75 210.453H118.391L118 215H111.188L114.531 189.703H124.047ZM120.562 205.969C120.229 203.104 119.896 199.568 119.562 195.359C118.896 200.193 118.479 203.729 118.312 205.969H120.562ZM144.297 200.734H137.719V196.328C137.719 195.047 137.646 194.25 137.5 193.938C137.365 193.615 137.057 193.453 136.578 193.453C136.036 193.453 135.693 193.646 135.547 194.031C135.401 194.417 135.328 195.25 135.328 196.531V208.281C135.328 209.51 135.401 210.312 135.547 210.688C135.693 211.062 136.021 211.25 136.531 211.25C137.021 211.25 137.339 211.062 137.484 210.688C137.641 210.312 137.719 209.432 137.719 208.047V204.875H144.297V205.859C144.297 208.474 144.109 210.328 143.734 211.422C143.37 212.516 142.552 213.474 141.281 214.297C140.021 215.12 138.464 215.531 136.609 215.531C134.682 215.531 133.094 215.182 131.844 214.484C130.594 213.786 129.766 212.823 129.359 211.594C128.953 210.354 128.75 208.495 128.75 206.016V198.625C128.75 196.802 128.812 195.438 128.938 194.531C129.062 193.615 129.432 192.734 130.047 191.891C130.672 191.047 131.531 190.385 132.625 189.906C133.729 189.417 134.995 189.172 136.422 189.172C138.359 189.172 139.958 189.547 141.219 190.297C142.479 191.047 143.307 191.984 143.703 193.109C144.099 194.224 144.297 195.964 144.297 198.328V200.734ZM146.656 189.703H157.625V194.766H153.234V199.562H157.344V204.375H153.234V209.938H158.062V215H146.656V189.703Z" fill="#252424"/>
<path d="M131.741 90.51L122.65 126.285L110.529 87.4928C108.797 81.0273 98.1909 81.6739 98.8407 88.5704L105.118 118.958C94.8257 117.475 92.2976 119.342 92.1308 126.285C84.416 124.966 80.6587 129.303 84.5551 145.897C85.8534 163.785 90.8028 174.273 103.17 179.733C112.91 184.043 121.568 185.121 134.988 176.5C141.265 171.975 147.325 156.889 137.152 140.94L142.996 92.6652C143.213 86.1998 133.905 84.2601 131.741 90.51Z" fill="#252424"/>
</g>
<defs>
<clipPath id="clip0_87_68">
<rect width="242" height="242" fill="white"/>
</clipPath>
</defs>
</svg>
