<svg width="1807" height="1107" viewBox="0 0 1807 1107" fill="none" xmlns="http://www.w3.org/2000/svg">
<g clip-path="url(#clip0_28_544)">
<rect width="1807" height="1107" fill="white"/>
<path d="M120 1120H0V270H120V1120Z" fill="#252424"/>
<path d="M120 1120V1051.04L51.04 1120H120Z" fill="#F2D30C"/>
<path d="M120 981.34V910.62L0 1030.62V1101.34L120 981.34Z" fill="#F2D30C"/>
<path d="M120 840.2V769.48L0 889.48V960.19L120 840.2Z" fill="#F2D30C"/>
<path d="M120 699.78V629.07L0 749.07V819.78L120 699.78Z" fill="#F2D30C"/>
<path d="M120 558.58V487.86L0 607.86V678.57L120 558.58Z" fill="#F2D30C"/>
<path d="M120 418.16V347.45L0 467.45V538.16L120 418.16Z" fill="#F2D30C"/>
<path d="M120 277.03V270H56.32L0 326.32V397.03L120 277.03Z" fill="#F2D30C"/>
<path d="M120 698H0V-152H120V698Z" fill="#252424"/>
<path d="M120 698V629.04L51.04 698H120Z" fill="#F2D30C"/>
<path d="M120 559.34V488.62L0 608.62V679.34L120 559.34Z" fill="#F2D30C"/>
<path d="M120 418.2V347.48L0 467.48V538.19L120 418.2Z" fill="#F2D30C"/>
<path d="M120 277.78V207.07L0 327.07V397.78L120 277.78Z" fill="#F2D30C"/>
<path d="M120 136.58V65.86L0 185.86V256.57L120 136.58Z" fill="#F2D30C"/>
<path d="M120 -3.84009V-74.55L0 45.45V116.16L120 -3.84009Z" fill="#F2D30C"/>
<path d="M240 1141H120V291H240V1141Z" fill="#252424"/>
<path d="M240 1141V1072.04L171.04 1141H240Z" fill="#F2D30C"/>
<path d="M240 1002.34V931.62L120 1051.62V1122.34L240 1002.34Z" fill="#F2D30C"/>
<path d="M240 861.2V790.48L120 910.48V981.19L240 861.2Z" fill="#F2D30C"/>
<path d="M240 720.78V650.07L120 770.07V840.78L240 720.78Z" fill="#F2D30C"/>
<path d="M240 579.58V508.86L120 628.86V699.57L240 579.58Z" fill="#F2D30C"/>
<path d="M240 439.16V368.45L120 488.45V559.16L240 439.16Z" fill="#F2D30C"/>
<path d="M240 298.03V291H176.32L120 347.32V418.03L240 298.03Z" fill="#F2D30C"/>
<path d="M240 719H120V-131H240V719Z" fill="#252424"/>
<path d="M240 719V650.04L171.04 719H240Z" fill="#F2D30C"/>
<path d="M240 580.34V509.62L120 629.62V700.34L240 580.34Z" fill="#F2D30C"/>
<path d="M240 439.2V368.48L120 488.48V559.19L240 439.2Z" fill="#F2D30C"/>
<path d="M240 298.78V228.07L120 348.07V418.78L240 298.78Z" fill="#F2D30C"/>
<path d="M240 157.58V86.86L120 206.86V277.57L240 157.58Z" fill="#F2D30C"/>
<path d="M240 17.1599V-53.55L120 66.45V137.16L240 17.1599Z" fill="#F2D30C"/>
<path d="M360 1162H240V312H360V1162Z" fill="#252424"/>
<path d="M360 1162V1093.04L291.04 1162H360Z" fill="#F2D30C"/>
<path d="M360 1023.34V952.62L240 1072.62V1143.34L360 1023.34Z" fill="#F2D30C"/>
<path d="M360 882.2V811.48L240 931.48V1002.19L360 882.2Z" fill="#F2D30C"/>
<path d="M360 741.78V671.07L240 791.07V861.78L360 741.78Z" fill="#F2D30C"/>
<path d="M360 600.58V529.86L240 649.86V720.57L360 600.58Z" fill="#F2D30C"/>
<path d="M360 460.16V389.45L240 509.45V580.16L360 460.16Z" fill="#F2D30C"/>
<path d="M360 319.03V312H296.32L240 368.32V439.03L360 319.03Z" fill="#F2D30C"/>
<path d="M360 740H240V-110H360V740Z" fill="#252424"/>
<path d="M360 740V671.04L291.04 740H360Z" fill="#F2D30C"/>
<path d="M360 601.34V530.62L240 650.62V721.34L360 601.34Z" fill="#F2D30C"/>
<path d="M360 460.2V389.48L240 509.48V580.19L360 460.2Z" fill="#F2D30C"/>
<path d="M360 319.78V249.07L240 369.07V439.78L360 319.78Z" fill="#F2D30C"/>
<path d="M360 178.58V107.86L240 227.86V298.57L360 178.58Z" fill="#F2D30C"/>
<path d="M360 38.1599V-32.55L240 87.45V158.16L360 38.1599Z" fill="#F2D30C"/>
<path d="M360 -102.97V-110H296.32L240 -53.68V17.03L360 -102.97Z" fill="#F2D30C"/>
<path d="M480 1183H360V333H480V1183Z" fill="#252424"/>
<path d="M480 1044.34V973.62L360 1093.62V1164.34L480 1044.34Z" fill="#F2D30C"/>
<path d="M480 903.2V832.48L360 952.48V1023.19L480 903.2Z" fill="#F2D30C"/>
<path d="M480 762.78V692.07L360 812.07V882.78L480 762.78Z" fill="#F2D30C"/>
<path d="M480 621.58V550.86L360 670.86V741.57L480 621.58Z" fill="#F2D30C"/>
<path d="M480 481.16V410.45L360 530.45V601.16L480 481.16Z" fill="#F2D30C"/>
<path d="M480 340.03V333H416.32L360 389.32V460.03L480 340.03Z" fill="#F2D30C"/>
<path d="M480 761H360V-89H480V761Z" fill="#252424"/>
<path d="M480 761V692.04L411.04 761H480Z" fill="#F2D30C"/>
<path d="M480 622.34V551.62L360 671.62V742.34L480 622.34Z" fill="#F2D30C"/>
<path d="M480 481.2V410.48L360 530.48V601.19L480 481.2Z" fill="#F2D30C"/>
<path d="M480 340.78V270.07L360 390.07V460.78L480 340.78Z" fill="#F2D30C"/>
<path d="M480 199.58V128.86L360 248.86V319.57L480 199.58Z" fill="#F2D30C"/>
<path d="M480 59.1599V-11.55L360 108.45V179.16L480 59.1599Z" fill="#F2D30C"/>
<path d="M480 -81.97V-89H416.32L360 -32.68V38.03L480 -81.97Z" fill="#F2D30C"/>
<path d="M600 1204H480V354H600V1204Z" fill="#252424"/>
<path d="M600 1065.34V994.62L480 1114.62V1185.34L600 1065.34Z" fill="#F2D30C"/>
<path d="M600 924.2V853.48L480 973.48V1044.19L600 924.2Z" fill="#F2D30C"/>
<path d="M600 783.78V713.07L480 833.07V903.78L600 783.78Z" fill="#F2D30C"/>
<path d="M600 642.58V571.86L480 691.86V762.57L600 642.58Z" fill="#F2D30C"/>
<path d="M600 502.16V431.45L480 551.45V622.16L600 502.16Z" fill="#F2D30C"/>
<path d="M600 361.03V354H536.32L480 410.32V481.03L600 361.03Z" fill="#F2D30C"/>
<path d="M600 782H480V-68H600V782Z" fill="#252424"/>
<path d="M600 782V713.04L531.04 782H600Z" fill="#F2D30C"/>
<path d="M600 643.34V572.62L480 692.62V763.34L600 643.34Z" fill="#F2D30C"/>
<path d="M600 502.2V431.48L480 551.48V622.19L600 502.2Z" fill="#F2D30C"/>
<path d="M600 361.78V291.07L480 411.07V481.78L600 361.78Z" fill="#F2D30C"/>
<path d="M600 220.58V149.86L480 269.86V340.57L600 220.58Z" fill="#F2D30C"/>
<path d="M600 80.1599V9.44995L480 129.45V200.16L600 80.1599Z" fill="#F2D30C"/>
<path d="M600 -60.97V-68H536.32L480 -11.68V59.03L600 -60.97Z" fill="#F2D30C"/>
<path d="M720 1225H600V375H720V1225Z" fill="#252424"/>
<path d="M720 1086.34V1015.62L600 1135.62V1206.34L720 1086.34Z" fill="#F2D30C"/>
<path d="M720 945.2V874.48L600 994.48V1065.19L720 945.2Z" fill="#F2D30C"/>
<path d="M720 804.78V734.07L600 854.07V924.78L720 804.78Z" fill="#F2D30C"/>
<path d="M720 663.58V592.86L600 712.86V783.57L720 663.58Z" fill="#F2D30C"/>
<path d="M720 523.16V452.45L600 572.45V643.16L720 523.16Z" fill="#F2D30C"/>
<path d="M720 382.03V375H656.32L600 431.32V502.03L720 382.03Z" fill="#F2D30C"/>
<path d="M720 803H600V-47H720V803Z" fill="#252424"/>
<path d="M720 803V734.04L651.04 803H720Z" fill="#F2D30C"/>
<path d="M720 664.34V593.62L600 713.62V784.34L720 664.34Z" fill="#F2D30C"/>
<path d="M720 523.2V452.48L600 572.48V643.19L720 523.2Z" fill="#F2D30C"/>
<path d="M720 382.78V312.07L600 432.07V502.78L720 382.78Z" fill="#F2D30C"/>
<path d="M720 241.58V170.86L600 290.86V361.57L720 241.58Z" fill="#F2D30C"/>
<path d="M720 101.16V30.45L600 150.45V221.16L720 101.16Z" fill="#F2D30C"/>
<path d="M720 -39.97V-47H656.32L600 9.32001V80.03L720 -39.97Z" fill="#F2D30C"/>
<path d="M840 1246H720V396H840V1246Z" fill="#252424"/>
<path d="M840 1107.34V1036.62L720 1156.62V1227.34L840 1107.34Z" fill="#F2D30C"/>
<path d="M840 966.2V895.48L720 1015.48V1086.19L840 966.2Z" fill="#F2D30C"/>
<path d="M840 825.78V755.07L720 875.07V945.78L840 825.78Z" fill="#F2D30C"/>
<path d="M840 684.58V613.86L720 733.86V804.57L840 684.58Z" fill="#F2D30C"/>
<path d="M840 544.16V473.45L720 593.45V664.16L840 544.16Z" fill="#F2D30C"/>
<path d="M840 403.03V396H776.32L720 452.32V523.03L840 403.03Z" fill="#F2D30C"/>
<path d="M840 824H720V-26H840V824Z" fill="#252424"/>
<path d="M840 824V755.04L771.04 824H840Z" fill="#F2D30C"/>
<path d="M840 685.34V614.62L720 734.62V805.34L840 685.34Z" fill="#F2D30C"/>
<path d="M840 544.2V473.48L720 593.48V664.19L840 544.2Z" fill="#F2D30C"/>
<path d="M840 403.78V333.07L720 453.07V523.78L840 403.78Z" fill="#F2D30C"/>
<path d="M840 262.58V191.86L720 311.86V382.57L840 262.58Z" fill="#F2D30C"/>
<path d="M840 122.16V51.45L720 171.45V242.16L840 122.16Z" fill="#F2D30C"/>
<path d="M840 -18.97V-26H776.32L720 30.32V101.03L840 -18.97Z" fill="#F2D30C"/>
<path d="M960 1267H840V417H960V1267Z" fill="#252424"/>
<path d="M960 1128.34V1057.62L840 1177.62V1248.34L960 1128.34Z" fill="#F2D30C"/>
<path d="M960 987.2V916.48L840 1036.48V1107.19L960 987.2Z" fill="#F2D30C"/>
<path d="M960 846.78V776.07L840 896.07V966.78L960 846.78Z" fill="#F2D30C"/>
<path d="M960 705.58V634.86L840 754.86V825.57L960 705.58Z" fill="#F2D30C"/>
<path d="M960 565.16V494.45L840 614.45V685.16L960 565.16Z" fill="#F2D30C"/>
<path d="M960 424.03V417H896.32L840 473.32V544.03L960 424.03Z" fill="#F2D30C"/>
<path d="M960 845H840V-5H960V845Z" fill="#252424"/>
<path d="M960 845V776.04L891.04 845H960Z" fill="#F2D30C"/>
<path d="M960 706.34V635.62L840 755.62V826.34L960 706.34Z" fill="#F2D30C"/>
<path d="M960 565.2V494.48L840 614.48V685.19L960 565.2Z" fill="#F2D30C"/>
<path d="M960 424.78V354.07L840 474.07V544.78L960 424.78Z" fill="#F2D30C"/>
<path d="M960 283.58V212.86L840 332.86V403.57L960 283.58Z" fill="#F2D30C"/>
<path d="M960 143.16V72.45L840 192.45V263.16L960 143.16Z" fill="#F2D30C"/>
<path d="M960 2.03003V-5H896.32L840 51.32V122.03L960 2.03003Z" fill="#F2D30C"/>
<path d="M967 1120H847V270H967V1120Z" fill="#252424"/>
<path d="M967 1120V1051.04L898.04 1120H967Z" fill="#F2D30C"/>
<path d="M967 981.34V910.62L847 1030.62V1101.34L967 981.34Z" fill="#F2D30C"/>
<path d="M967 840.2V769.48L847 889.48V960.19L967 840.2Z" fill="#F2D30C"/>
<path d="M967 699.78V629.07L847 749.07V819.78L967 699.78Z" fill="#F2D30C"/>
<path d="M967 558.58V487.86L847 607.86V678.57L967 558.58Z" fill="#F2D30C"/>
<path d="M967 418.16V347.45L847 467.45V538.16L967 418.16Z" fill="#F2D30C"/>
<path d="M967 277.03V270H903.32L847 326.32V397.03L967 277.03Z" fill="#F2D30C"/>
<path d="M967 698H847V-152H967V698Z" fill="#252424"/>
<path d="M967 698V629.04L898.04 698H967Z" fill="#F2D30C"/>
<path d="M967 559.34V488.62L847 608.62V679.34L967 559.34Z" fill="#F2D30C"/>
<path d="M967 418.2V347.48L847 467.48V538.19L967 418.2Z" fill="#F2D30C"/>
<path d="M967 277.78V207.07L847 327.07V397.78L967 277.78Z" fill="#F2D30C"/>
<path d="M967 136.58V65.86L847 185.86V256.57L967 136.58Z" fill="#F2D30C"/>
<path d="M967 -3.84009V-74.55L847 45.45V116.16L967 -3.84009Z" fill="#F2D30C"/>
<path d="M1087 1141H967V291H1087V1141Z" fill="#252424"/>
<path d="M1087 1141V1072.04L1018.04 1141H1087Z" fill="#F2D30C"/>
<path d="M1087 1002.34V931.62L967 1051.62V1122.34L1087 1002.34Z" fill="#F2D30C"/>
<path d="M1087 861.2V790.48L967 910.48V981.19L1087 861.2Z" fill="#F2D30C"/>
<path d="M1087 720.78V650.07L967 770.07V840.78L1087 720.78Z" fill="#F2D30C"/>
<path d="M1087 579.58V508.86L967 628.86V699.57L1087 579.58Z" fill="#F2D30C"/>
<path d="M1087 439.16V368.45L967 488.45V559.16L1087 439.16Z" fill="#F2D30C"/>
<path d="M1087 298.03V291H1023.32L967 347.32V418.03L1087 298.03Z" fill="#F2D30C"/>
<path d="M1087 719H967V-131H1087V719Z" fill="#252424"/>
<path d="M1087 719V650.04L1018.04 719H1087Z" fill="#F2D30C"/>
<path d="M1087 580.34V509.62L967 629.62V700.34L1087 580.34Z" fill="#F2D30C"/>
<path d="M1087 439.2V368.48L967 488.48V559.19L1087 439.2Z" fill="#F2D30C"/>
<path d="M1087 298.78V228.07L967 348.07V418.78L1087 298.78Z" fill="#F2D30C"/>
<path d="M1087 157.58V86.86L967 206.86V277.57L1087 157.58Z" fill="#F2D30C"/>
<path d="M1087 17.1599V-53.55L967 66.45V137.16L1087 17.1599Z" fill="#F2D30C"/>
<path d="M1207 1162H1087V312H1207V1162Z" fill="#252424"/>
<path d="M1207 1162V1093.04L1138.04 1162H1207Z" fill="#F2D30C"/>
<path d="M1207 1023.34V952.62L1087 1072.62V1143.34L1207 1023.34Z" fill="#F2D30C"/>
<path d="M1207 882.2V811.48L1087 931.48V1002.19L1207 882.2Z" fill="#F2D30C"/>
<path d="M1207 741.78V671.07L1087 791.07V861.78L1207 741.78Z" fill="#F2D30C"/>
<path d="M1207 600.58V529.86L1087 649.86V720.57L1207 600.58Z" fill="#F2D30C"/>
<path d="M1207 460.16V389.45L1087 509.45V580.16L1207 460.16Z" fill="#F2D30C"/>
<path d="M1207 319.03V312H1143.32L1087 368.32V439.03L1207 319.03Z" fill="#F2D30C"/>
<path d="M1207 740H1087V-110H1207V740Z" fill="#252424"/>
<path d="M1207 740V671.04L1138.04 740H1207Z" fill="#F2D30C"/>
<path d="M1207 601.34V530.62L1087 650.62V721.34L1207 601.34Z" fill="#F2D30C"/>
<path d="M1207 460.2V389.48L1087 509.48V580.19L1207 460.2Z" fill="#F2D30C"/>
<path d="M1207 319.78V249.07L1087 369.07V439.78L1207 319.78Z" fill="#F2D30C"/>
<path d="M1207 178.58V107.86L1087 227.86V298.57L1207 178.58Z" fill="#F2D30C"/>
<path d="M1207 38.1599V-32.55L1087 87.45V158.16L1207 38.1599Z" fill="#F2D30C"/>
<path d="M1207 -102.97V-110H1143.32L1087 -53.68V17.03L1207 -102.97Z" fill="#F2D30C"/>
<path d="M1327 1183H1207V333H1327V1183Z" fill="#252424"/>
<path d="M1327 1044.34V973.62L1207 1093.62V1164.34L1327 1044.34Z" fill="#F2D30C"/>
<path d="M1327 903.2V832.48L1207 952.48V1023.19L1327 903.2Z" fill="#F2D30C"/>
<path d="M1327 762.78V692.07L1207 812.07V882.78L1327 762.78Z" fill="#F2D30C"/>
<path d="M1327 621.58V550.86L1207 670.86V741.57L1327 621.58Z" fill="#F2D30C"/>
<path d="M1327 481.16V410.45L1207 530.45V601.16L1327 481.16Z" fill="#F2D30C"/>
<path d="M1327 340.03V333H1263.32L1207 389.32V460.03L1327 340.03Z" fill="#F2D30C"/>
<path d="M1327 761H1207V-89H1327V761Z" fill="#252424"/>
<path d="M1327 761V692.04L1258.04 761H1327Z" fill="#F2D30C"/>
<path d="M1327 622.34V551.62L1207 671.62V742.34L1327 622.34Z" fill="#F2D30C"/>
<path d="M1327 481.2V410.48L1207 530.48V601.19L1327 481.2Z" fill="#F2D30C"/>
<path d="M1327 340.78V270.07L1207 390.07V460.78L1327 340.78Z" fill="#F2D30C"/>
<path d="M1327 199.58V128.86L1207 248.86V319.57L1327 199.58Z" fill="#F2D30C"/>
<path d="M1327 59.1599V-11.55L1207 108.45V179.16L1327 59.1599Z" fill="#F2D30C"/>
<path d="M1327 -81.97V-89H1263.32L1207 -32.68V38.03L1327 -81.97Z" fill="#F2D30C"/>
<path d="M1447 1204H1327V354H1447V1204Z" fill="#252424"/>
<path d="M1447 1065.34V994.62L1327 1114.62V1185.34L1447 1065.34Z" fill="#F2D30C"/>
<path d="M1447 924.2V853.48L1327 973.48V1044.19L1447 924.2Z" fill="#F2D30C"/>
<path d="M1447 783.78V713.07L1327 833.07V903.78L1447 783.78Z" fill="#F2D30C"/>
<path d="M1447 642.58V571.86L1327 691.86V762.57L1447 642.58Z" fill="#F2D30C"/>
<path d="M1447 502.16V431.45L1327 551.45V622.16L1447 502.16Z" fill="#F2D30C"/>
<path d="M1447 361.03V354H1383.32L1327 410.32V481.03L1447 361.03Z" fill="#F2D30C"/>
<path d="M1447 782H1327V-68H1447V782Z" fill="#252424"/>
<path d="M1447 782V713.04L1378.04 782H1447Z" fill="#F2D30C"/>
<path d="M1447 643.34V572.62L1327 692.62V763.34L1447 643.34Z" fill="#F2D30C"/>
<path d="M1447 502.2V431.48L1327 551.48V622.19L1447 502.2Z" fill="#F2D30C"/>
<path d="M1447 361.78V291.07L1327 411.07V481.78L1447 361.78Z" fill="#F2D30C"/>
<path d="M1447 220.58V149.86L1327 269.86V340.57L1447 220.58Z" fill="#F2D30C"/>
<path d="M1447 80.1599V9.44995L1327 129.45V200.16L1447 80.1599Z" fill="#F2D30C"/>
<path d="M1447 -60.97V-68H1383.32L1327 -11.68V59.03L1447 -60.97Z" fill="#F2D30C"/>
<path d="M1567 1225H1447V375H1567V1225Z" fill="#252424"/>
<path d="M1567 1086.34V1015.62L1447 1135.62V1206.34L1567 1086.34Z" fill="#F2D30C"/>
<path d="M1567 945.2V874.48L1447 994.48V1065.19L1567 945.2Z" fill="#F2D30C"/>
<path d="M1567 804.78V734.07L1447 854.07V924.78L1567 804.78Z" fill="#F2D30C"/>
<path d="M1567 663.58V592.86L1447 712.86V783.57L1567 663.58Z" fill="#F2D30C"/>
<path d="M1567 523.16V452.45L1447 572.45V643.16L1567 523.16Z" fill="#F2D30C"/>
<path d="M1567 382.03V375H1503.32L1447 431.32V502.03L1567 382.03Z" fill="#F2D30C"/>
<path d="M1567 803H1447V-47H1567V803Z" fill="#252424"/>
<path d="M1567 803V734.04L1498.04 803H1567Z" fill="#F2D30C"/>
<path d="M1567 664.34V593.62L1447 713.62V784.34L1567 664.34Z" fill="#F2D30C"/>
<path d="M1567 523.2V452.48L1447 572.48V643.19L1567 523.2Z" fill="#F2D30C"/>
<path d="M1567 382.78V312.07L1447 432.07V502.78L1567 382.78Z" fill="#F2D30C"/>
<path d="M1567 241.58V170.86L1447 290.86V361.57L1567 241.58Z" fill="#F2D30C"/>
<path d="M1567 101.16V30.45L1447 150.45V221.16L1567 101.16Z" fill="#F2D30C"/>
<path d="M1567 -39.97V-47H1503.32L1447 9.32001V80.03L1567 -39.97Z" fill="#F2D30C"/>
<path d="M1687 1246H1567V396H1687V1246Z" fill="#252424"/>
<path d="M1687 1107.34V1036.62L1567 1156.62V1227.34L1687 1107.34Z" fill="#F2D30C"/>
<path d="M1687 966.2V895.48L1567 1015.48V1086.19L1687 966.2Z" fill="#F2D30C"/>
<path d="M1687 825.78V755.07L1567 875.07V945.78L1687 825.78Z" fill="#F2D30C"/>
<path d="M1687 684.58V613.86L1567 733.86V804.57L1687 684.58Z" fill="#F2D30C"/>
<path d="M1687 544.16V473.45L1567 593.45V664.16L1687 544.16Z" fill="#F2D30C"/>
<path d="M1687 403.03V396H1623.32L1567 452.32V523.03L1687 403.03Z" fill="#F2D30C"/>
<path d="M1687 824H1567V-26H1687V824Z" fill="#252424"/>
<path d="M1687 824V755.04L1618.04 824H1687Z" fill="#F2D30C"/>
<path d="M1687 685.34V614.62L1567 734.62V805.34L1687 685.34Z" fill="#F2D30C"/>
<path d="M1687 544.2V473.48L1567 593.48V664.19L1687 544.2Z" fill="#F2D30C"/>
<path d="M1687 403.78V333.07L1567 453.07V523.78L1687 403.78Z" fill="#F2D30C"/>
<path d="M1687 262.58V191.86L1567 311.86V382.57L1687 262.58Z" fill="#F2D30C"/>
<path d="M1687 122.16V51.45L1567 171.45V242.16L1687 122.16Z" fill="#F2D30C"/>
<path d="M1687 -18.97V-26H1623.32L1567 30.32V101.03L1687 -18.97Z" fill="#F2D30C"/>
<path d="M1807 1267H1687V417H1807V1267Z" fill="#252424"/>
<path d="M1807 1128.34V1057.62L1687 1177.62V1248.34L1807 1128.34Z" fill="#F2D30C"/>
<path d="M1807 987.2V916.48L1687 1036.48V1107.19L1807 987.2Z" fill="#F2D30C"/>
<path d="M1807 846.78V776.07L1687 896.07V966.78L1807 846.78Z" fill="#F2D30C"/>
<path d="M1807 705.58V634.86L1687 754.86V825.57L1807 705.58Z" fill="#F2D30C"/>
<path d="M1807 565.16V494.45L1687 614.45V685.16L1807 565.16Z" fill="#F2D30C"/>
<path d="M1807 424.03V417H1743.32L1687 473.32V544.03L1807 424.03Z" fill="#F2D30C"/>
<path d="M1807 845H1687V-5H1807V845Z" fill="#252424"/>
<path d="M1807 845V776.04L1738.04 845H1807Z" fill="#F2D30C"/>
<path d="M1807 706.34V635.62L1687 755.62V826.34L1807 706.34Z" fill="#F2D30C"/>
<path d="M1807 565.2V494.48L1687 614.48V685.19L1807 565.2Z" fill="#F2D30C"/>
<path d="M1807 424.78V354.07L1687 474.07V544.78L1807 424.78Z" fill="#F2D30C"/>
<path d="M1807 283.58V212.86L1687 332.86V403.57L1807 283.58Z" fill="#F2D30C"/>
<path d="M1807 143.16V72.45L1687 192.45V263.16L1807 143.16Z" fill="#F2D30C"/>
<path d="M1807 2.03003V-5H1743.32L1687 51.32V122.03L1807 2.03003Z" fill="#F2D30C"/>
</g>
<defs>
<clipPath id="clip0_28_544">
<rect width="1807" height="1107" fill="white"/>
</clipPath>
</defs>
</svg>
