<svg width="242" height="242" viewBox="0 0 242 242" fill="none" xmlns="http://www.w3.org/2000/svg">
<g clip-path="url(#clip0_87_61)">
<path d="M105.278 25.5C111.821 14.1667 128.179 14.1667 134.722 25.5L229.119 189C235.662 200.333 227.483 214.5 214.397 214.5H25.6032C12.5166 214.5 4.3375 200.333 10.8808 189L105.278 25.5Z" fill="#252424" stroke="#F2D30C" stroke-width="15"/>
<path d="M115.17 51.5C117.094 48.1667 121.906 48.1667 123.83 51.5L200.473 184.25C202.398 187.583 199.992 191.75 196.143 191.75H42.8567C39.0077 191.75 36.6021 187.583 38.5266 184.25L115.17 51.5Z" fill="#F2D30C"/>
<rect width="155" height="39" transform="translate(43 183)" fill="#F2D30C"/>
<path d="M61.8438 189.703V194.766H57.9375V215H51.3594V194.766H47.4688V189.703H61.8438ZM78.4688 189.703V215H71.8906V204.375H69.9219V215H63.3438V189.703H69.9219V198.75H71.8906V189.703H78.4688ZM96.0781 189.703V206.609C96.0781 208.526 96.0156 209.875 95.8906 210.656C95.7656 211.427 95.3958 212.224 94.7812 213.047C94.1667 213.859 93.3542 214.479 92.3438 214.906C91.3438 215.323 90.1615 215.531 88.7969 215.531C87.2865 215.531 85.9531 215.281 84.7969 214.781C83.6406 214.281 82.776 213.63 82.2031 212.828C81.6302 212.026 81.2917 211.182 81.1875 210.297C81.0833 209.401 81.0312 207.526 81.0312 204.672V189.703H87.6094V208.672C87.6094 209.776 87.6667 210.484 87.7812 210.797C87.9062 211.099 88.151 211.25 88.5156 211.25C88.9323 211.25 89.1979 211.083 89.3125 210.75C89.4375 210.406 89.5 209.604 89.5 208.344V189.703H96.0781ZM118.922 189.703V215H113.172V197.922L110.875 215H106.797L104.375 198.312V215H98.625V189.703H107.141C107.391 191.224 107.656 193.016 107.938 195.078L108.844 201.516L110.344 189.703H118.922ZM121.562 189.703H128.125C130.198 189.703 131.766 189.865 132.828 190.188C133.901 190.51 134.766 191.167 135.422 192.156C136.078 193.135 136.406 194.719 136.406 196.906C136.406 198.385 136.172 199.417 135.703 200C135.245 200.583 134.333 201.031 132.969 201.344C134.49 201.688 135.521 202.26 136.062 203.062C136.604 203.854 136.875 205.073 136.875 206.719V209.062C136.875 210.771 136.677 212.036 136.281 212.859C135.896 213.682 135.276 214.245 134.422 214.547C133.568 214.849 131.818 215 129.172 215H121.562V189.703ZM128.141 194.031V199.656C128.422 199.646 128.641 199.641 128.797 199.641C129.443 199.641 129.854 199.484 130.031 199.172C130.208 198.849 130.297 197.938 130.297 196.438C130.297 195.646 130.224 195.094 130.078 194.781C129.932 194.458 129.74 194.255 129.5 194.172C129.271 194.089 128.818 194.042 128.141 194.031ZM128.141 203.594V210.672C129.068 210.641 129.656 210.495 129.906 210.234C130.167 209.974 130.297 209.333 130.297 208.312V205.953C130.297 204.87 130.182 204.214 129.953 203.984C129.724 203.755 129.12 203.625 128.141 203.594ZM153.188 197.359H147.078V195.484C147.078 194.609 147 194.052 146.844 193.812C146.688 193.573 146.427 193.453 146.062 193.453C145.667 193.453 145.365 193.615 145.156 193.938C144.958 194.26 144.859 194.75 144.859 195.406C144.859 196.25 144.974 196.885 145.203 197.312C145.422 197.74 146.042 198.255 147.062 198.859C149.99 200.599 151.833 202.026 152.594 203.141C153.354 204.255 153.734 206.052 153.734 208.531C153.734 210.333 153.521 211.661 153.094 212.516C152.677 213.37 151.865 214.089 150.656 214.672C149.448 215.245 148.042 215.531 146.438 215.531C144.677 215.531 143.172 215.198 141.922 214.531C140.682 213.865 139.87 213.016 139.484 211.984C139.099 210.953 138.906 209.49 138.906 207.594V205.938H145.016V209.016C145.016 209.964 145.099 210.573 145.266 210.844C145.443 211.115 145.75 211.25 146.188 211.25C146.625 211.25 146.948 211.078 147.156 210.734C147.375 210.391 147.484 209.88 147.484 209.203C147.484 207.714 147.281 206.74 146.875 206.281C146.458 205.823 145.432 205.057 143.797 203.984C142.161 202.901 141.078 202.115 140.547 201.625C140.016 201.135 139.573 200.458 139.219 199.594C138.875 198.729 138.703 197.625 138.703 196.281C138.703 194.344 138.948 192.927 139.438 192.031C139.938 191.135 140.74 190.438 141.844 189.938C142.948 189.427 144.281 189.172 145.844 189.172C147.552 189.172 149.005 189.448 150.203 190C151.411 190.552 152.208 191.25 152.594 192.094C152.99 192.927 153.188 194.349 153.188 196.359V197.359ZM176.422 189.703V206.609C176.422 208.526 176.359 209.875 176.234 210.656C176.109 211.427 175.74 212.224 175.125 213.047C174.51 213.859 173.698 214.479 172.688 214.906C171.688 215.323 170.505 215.531 169.141 215.531C167.63 215.531 166.297 215.281 165.141 214.781C163.984 214.281 163.12 213.63 162.547 212.828C161.974 212.026 161.635 211.182 161.531 210.297C161.427 209.401 161.375 207.526 161.375 204.672V189.703H167.953V208.672C167.953 209.776 168.01 210.484 168.125 210.797C168.25 211.099 168.495 211.25 168.859 211.25C169.276 211.25 169.542 211.083 169.656 210.75C169.781 210.406 169.844 209.604 169.844 208.344V189.703H176.422ZM178.969 189.703H185.594C187.385 189.703 188.76 189.844 189.719 190.125C190.688 190.406 191.411 190.812 191.891 191.344C192.38 191.875 192.708 192.521 192.875 193.281C193.052 194.031 193.141 195.198 193.141 196.781V198.984C193.141 200.599 192.974 201.776 192.641 202.516C192.307 203.255 191.693 203.823 190.797 204.219C189.911 204.615 188.75 204.812 187.312 204.812H185.547V215H178.969V189.703ZM185.547 194.031V200.469C185.734 200.479 185.896 200.484 186.031 200.484C186.635 200.484 187.052 200.339 187.281 200.047C187.521 199.745 187.641 199.125 187.641 198.188V196.109C187.641 195.245 187.505 194.682 187.234 194.422C186.964 194.161 186.401 194.031 185.547 194.031Z" fill="#252424"/>
<path d="M110.798 91.4352C113.076 105.47 105.553 113.144 85.1263 131.062C82.5572 133.416 82.0371 170.932 85.1263 174.61C96.4869 182.857 107.477 185.483 139.162 184.929C148.478 184.929 152.619 176.055 144.959 170.276C156.346 171.101 159.865 158.718 148.686 154.59C160.69 152.678 161.513 140.496 148.686 137.873C154.689 136.841 157.588 129.204 152.205 125.283C148.478 122.806 141.143 122.293 122.392 121.155C119.814 120.706 119.216 119.83 120.115 116.821C123.373 107.945 125.084 107.946 124.67 97.8333C123.22 88.9586 120.115 85.45 113.697 86.0691C110.88 86.7049 110.442 88.0499 110.798 91.4352Z" fill="#252424"/>
</g>
<defs>
<clipPath id="clip0_87_61">
<rect width="242" height="242" fill="white"/>
</clipPath>
</defs>
</svg>
