<svg width="182" height="182" viewBox="0 0 182 182" fill="none" xmlns="http://www.w3.org/2000/svg">
<rect x="2.5" y="2.5" width="177" height="177" fill="#F2D30C" stroke="#F2D30C" stroke-width="5"/>
<path d="M78.7288 37.5882C81.492 54.5996 72.3645 63.9018 47.5799 85.6204C44.4628 88.4737 43.8317 133.947 47.5799 138.406C61.3642 148.402 74.699 151.585 113.143 150.914C124.447 150.914 129.471 140.157 120.177 133.152C133.993 134.153 138.263 119.143 124.698 114.14C139.264 111.821 140.262 97.0556 124.698 93.876C131.983 92.6251 135.5 83.3689 128.969 78.6157C124.447 75.6137 115.546 74.9918 92.796 73.6124C89.6676 73.068 88.9417 72.0061 90.0328 68.3588C93.9862 57.5995 96.0616 57.6016 95.5592 45.3434C93.8008 34.5861 90.0328 30.3333 82.2456 31.0838C78.8276 31.8545 78.2963 33.4847 78.7288 37.5882Z" fill="#252424"/>
</svg>
