<svg width="100" height="100" viewBox="0 0 100 100" fill="none" xmlns="http://www.w3.org/2000/svg">
<rect width="100" height="100" fill="#F2D30C"/>
<path d="M43.6751 18.8431C45.287 28.7664 39.9626 34.1927 25.505 46.8619C23.6866 48.5263 23.3185 75.0526 25.505 77.6534C33.5458 83.4844 41.3244 85.3413 63.7502 84.95C70.3442 84.95 73.2749 78.6749 67.8532 74.5889C75.9125 75.1726 78.4036 66.4167 70.4908 63.4981C78.9875 62.1458 79.5694 53.5324 70.4908 51.6776C74.7402 50.948 76.7917 45.5485 72.9818 42.7758C70.3442 41.0247 65.1521 40.6619 51.881 39.8572C50.0561 39.5396 49.6327 38.9202 50.2691 36.7927C52.5753 30.5164 53.7859 30.5176 53.4929 23.367C52.4671 17.0919 50.2691 14.6111 45.7266 15.0489C43.7328 15.4984 43.4228 16.4494 43.6751 18.8431Z" fill="#252424"/>
</svg>
